name analog
datacolumns 19
datarows 73
range 0.522 0.558
endheader
time	ground_force_vx	ground_force_vy	ground_force_vz	ground_force_px	ground_force_py	ground_force_pz	l_ground_force_vx	l_ground_force_vy	l_ground_force_vz	l_ground_force_px	l_ground_force_py	l_ground_force_pz	ground_torque_x	ground_torque_y	ground_torque_z	l_ground_torque_x	l_ground_torque_y	l_ground_torque_z
0.522	-0.0	-0.0	-0.0	8.118156433105469	2.741172313690185	-728.66796875	-0.0	-0.0	-0.0	-0.0	-0.0	-0.0	-0.0	-0.0	-0.0	-0.0	-0.0	-0.0
0.5225	-0.0	-0.0	-0.0	7.821027755737305	2.447402238845825	-729.2130126953125	-0.0	-0.0	-0.0	-0.0	-0.0	-0.0	-0.0	-0.0	-0.0	-0.0	-0.0	-0.0
0.523	-0.0	-0.0	-0.0	7.772386074066162	3.264427423477173	-726.3588256835938	-0.0	-0.0	-0.0	-0.0	-0.0	-0.0	-0.0	-0.0	-0.0	-0.0	-0.0	-0.0
0.5235	-0.0	-0.0	-0.0	7.932218074798584	3.316102981567383	-724.2996826171875	-0.0	-0.0	-0.0	-0.0	-0.0	-0.0	-0.0	-0.0	-0.0	-0.0	-0.0	-0.0
0.524	-0.0	-0.0	-0.0	8.013785362243652	3.806976318359375	-723.0909423828125	-0.0	-0.0	-0.0	-0.0	-0.0	-0.0	-0.0	-0.0	-0.0	-0.0	-0.0	-0.0
0.5245	-0.0	-0.0	-0.0	7.776630878448486	4.474305629730225	-721.3851928710938	-0.0	-0.0	-0.0	-0.0	-0.0	-0.0	-0.0	-0.0	-0.0	-0.0	-0.0	-0.0
0.525	-0.0	-0.0	-0.0	7.371470928192139	4.698668479919434	-721.1627807617188	-0.0	-0.0	-0.0	-0.0	-0.0	-0.0	-0.0	-0.0	-0.0	-0.0	-0.0	-0.0
0.5255	-0.0	-0.0	-0.0	6.90814733505249	4.797480583190918	-720.487060546875	-0.0	-0.0	-0.0	-0.0	-0.0	-0.0	-0.0	-0.0	-0.0	-0.0	-0.0	-0.0
0.526	-0.0	-0.0	-0.0	5.969238758087158	5.153846740722656	-720.7103881835938	-0.0	-0.0	-0.0	-0.0	-0.0	-0.0	-0.0	-0.0	-0.0	-0.0	-0.0	-0.0
0.5265	-0.0	-0.0	-0.0	5.562823295593262	5.10515832901001	-720.9696655273438	-0.0	-0.0	-0.0	-0.0	-0.0	-0.0	-0.0	-0.0	-0.0	-0.0	-0.0	-0.0
0.527	-0.0	-0.0	-0.0	5.052371501922607	5.3637800216674805	-721.1618041992188	-0.0	-0.0	-0.0	-0.0	-0.0	-0.0	-0.0	-0.0	-0.0	-0.0	-0.0	-0.0
0.5275	-0.0	-0.0	-0.0	5.052487850189209	5.234267234802246	-722.1880493164062	-0.0	-0.0	-0.0	-0.0	-0.0	-0.0	-0.0	-0.0	-0.0	-0.0	-0.0	-0.0
0.528	-0.0	-0.0	-0.0	5.4337005615234375	4.885905742645264	-722.7988891601562	-0.0	-0.0	-0.0	-0.0	-0.0	-0.0	-0.0	-0.0	-0.0	-0.0	-0.0	-0.0
0.5285	-0.0	-0.0	-0.0	5.765916347503662	4.926276683807373	-722.8944091796875	-0.0	-0.0	-0.0	-0.0	-0.0	-0.0	-0.0	-0.0	-0.0	-0.0	-0.0	-0.0
0.529	-0.0	-0.0	-0.0	6.569376468658447	5.105218887329102	-724.6632080078125	-0.0	-0.0	-0.0	-0.0	-0.0	-0.0	-0.0	-0.0	-0.0	-0.0	-0.0	-0.0
0.5295	-0.0	-0.0	-0.0	7.233095169067383	5.501066207885742	-723.891845703125	-0.0	-0.0	-0.0	-0.0	-0.0	-0.0	-0.0	-0.0	-0.0	-0.0	-0.0	-0.0
0.53	-0.0	-0.0	-0.0	7.736119747161865	5.073625564575195	-723.952392578125	-0.0	-0.0	-0.0	-0.0	-0.0	-0.0	-0.0	-0.0	-0.0	-0.0	-0.0	-0.0
0.5305	-0.0	-0.0	-0.0	8.8233642578125	5.031633377075195	-722.9593505859375	-0.0	-0.0	-0.0	-0.0	-0.0	-0.0	-0.0	-0.0	-0.0	-0.0	-0.0	-0.0
0.531	-0.0	-0.0	-0.0	9.447760581970217	5.112179279327393	-724.0866088867188	-0.0	-0.0	-0.0	-0.0	-0.0	-0.0	-0.0	-0.0	-0.0	-0.0	-0.0	-0.0
0.5315	-0.0	-0.0	-0.0	9.40157985687256	4.968266010284424	-723.8934936523438	-0.0	-0.0	-0.0	-0.0	-0.0	-0.0	-0.0	-0.0	-0.0	-0.0	-0.0	-0.0
0.532	-0.0	-0.0	-0.0	9.562889099121094	5.183768272399902	-723.3468627929688	-0.0	-0.0	-0.0	-0.0	-0.0	-0.0	-0.0	-0.0	-0.0	-0.0	-0.0	-0.0
0.5325	-0.0	-0.0	-0.0	8.782855033874512	5.47714376449585	-722.696044921875	-0.0	-0.0	-0.0	-0.0	-0.0	-0.0	-0.0	-0.0	-0.0	-0.0	-0.0	-0.0
0.533	-0.0	-0.0	-0.0	7.640754699707031	5.111753940582275	-724.0189208984375	-0.0	-0.0	-0.0	-0.0	-0.0	-0.0	-0.0	-0.0	-0.0	-0.0	-0.0	-0.0
0.5335	-0.0	-0.0	-0.0	6.985084533691406	5.704345703125	-723.2421875	-0.0	-0.0	-0.0	-0.0	-0.0	-0.0	-0.0	-0.0	-0.0	-0.0	-0.0	-0.0
0.534	-0.0	-0.0	-0.0	6.392000198364258	5.904777050018311	-722.9593505859375	-0.0	-0.0	-0.0	-0.0	-0.0	-0.0	-0.0	-0.0	-0.0	-0.0	-0.0	-0.0
0.5345	-0.0	-0.0	-0.0	5.651301860809326	5.615215301513672	-725.8206176757812	-0.0	-0.0	-0.0	-0.0	-0.0	-0.0	-0.0	-0.0	-0.0	-0.0	-0.0	-0.0
0.535	-0.0	-0.0	-0.0	5.254334449768066	5.922632694244385	-725.0064697265625	-0.0	-0.0	-0.0	-0.0	-0.0	-0.0	-0.0	-0.0	-0.0	-0.0	-0.0	-0.0
0.5355	-0.0	-0.0	-0.0	4.928274631500244	5.815153121948242	-725.431640625	-0.0	-0.0	-0.0	-0.0	-0.0	-0.0	-0.0	-0.0	-0.0	-0.0	-0.0	-0.0
0.536	-0.0	-0.0	-0.0	5.014270782470703	5.655164241790772	-725.7847900390625	-0.0	-0.0	-0.0	-0.0	-0.0	-0.0	-0.0	-0.0	-0.0	-0.0	-0.0	-0.0
0.5365	-0.0	-0.0	-0.0	5.017162322998047	5.645853996276856	-726.0533447265625	-0.0	-0.0	-0.0	-0.0	-0.0	-0.0	-0.0	-0.0	-0.0	-0.0	-0.0	-0.0
0.537	-0.0	-0.0	-0.0	4.99578857421875	5.82399845123291	-725.3477172851562	-0.0	-0.0	-0.0	-0.0	-0.0	-0.0	-0.0	-0.0	-0.0	-0.0	-0.0	-0.0
0.5375	-0.0	-0.0	-0.0	4.67882776260376	6.290500640869141	-726.7694702148438	-0.0	-0.0	-0.0	-0.0	-0.0	-0.0	-0.0	-0.0	-0.0	-0.0	-0.0	-0.0
0.538	-0.0	-0.0	-0.0	5.648760318756104	6.97300910949707	-725.9801635742188	-0.0	-0.0	-0.0	-0.0	-0.0	-0.0	-0.0	-0.0	-0.0	-0.0	-0.0	-0.0
0.5385	-0.0	-0.0	-0.0	5.977104187011719	7.724132537841797	-724.6434326171875	-0.0	-0.0	-0.0	-0.0	-0.0	-0.0	-0.0	-0.0	-0.0	-0.0	-0.0	-0.0
0.539	-0.0	-0.0	-0.0	7.078911781311035	7.517049789428711	-724.5249633789062	-0.0	-0.0	-0.0	-0.0	-0.0	-0.0	-0.0	-0.0	-0.0	-0.0	-0.0	-0.0
0.5395	-0.0	-0.0	-0.0	8.127877235412598	8.140863418579102	-723.3929443359375	-0.0	-0.0	-0.0	-0.0	-0.0	-0.0	-0.0	-0.0	-0.0	-0.0	-0.0	-0.0
0.54	-0.0	-0.0	-0.0	8.891120910644531	8.645648956298828	-722.018310546875	-0.0	-0.0	-0.0	-0.0	-0.0	-0.0	-0.0	-0.0	-0.0	-0.0	-0.0	-0.0
0.5405	-0.0	-0.0	-0.0	9.456314086914062	8.685287475585938	-722.2920532226562	-0.0	-0.0	-0.0	-0.0	-0.0	-0.0	-0.0	-0.0	-0.0	-0.0	-0.0	-0.0
0.541	-0.0	-0.0	-0.0	9.426617622375488	9.606223106384276	-722.409912109375	-0.0	-0.0	-0.0	-0.0	-0.0	-0.0	-0.0	-0.0	-0.0	-0.0	-0.0	-0.0
0.5415	-0.0	-0.0	-0.0	9.287883758544922	10.309534072875977	-723.1161499023438	-0.0	-0.0	-0.0	-0.0	-0.0	-0.0	-0.0	-0.0	-0.0	-0.0	-0.0	-0.0
0.542	-0.0	-0.0	-0.0	8.55484390258789	10.735183715820312	-724.0189208984375	-0.0	-0.0	-0.0	-0.0	-0.0	-0.0	-0.0	-0.0	-0.0	-0.0	-0.0	-0.0
0.5425	-0.0	-0.0	-0.0	8.17798137664795	11.131162643432615	-723.9786987304688	-0.0	-0.0	-0.0	-0.0	-0.0	-0.0	-0.0	-0.0	-0.0	-0.0	-0.0	-0.0
0.543	-0.0	-0.0	-0.0	6.572256088256836	11.41887092590332	-726.1782836914062	-0.0	-0.0	-0.0	-0.0	-0.0	-0.0	-0.0	-0.0	-0.0	-0.0	-0.0	-0.0
0.5435	-0.0	-0.0	-0.0	6.325274467468262	11.81490707397461	-727.1568603515625	-0.0	-0.0	-0.0	-0.0	-0.0	-0.0	-0.0	-0.0	-0.0	-0.0	-0.0	-0.0
0.544	-0.0	-0.0	-0.0	5.1140875816345215	11.972536087036133	-728.257080078125	-0.0	-0.0	-0.0	-0.0	-0.0	-0.0	-0.0	-0.0	-0.0	-0.0	-0.0	-0.0
0.5445	-0.0	-0.0	-0.0	4.421117782592773	12.181879043579102	-733.4810791015625	-0.0	-0.0	-0.0	-0.0	-0.0	-0.0	-0.0	-0.0	-0.0	-0.0	-0.0	-0.0
0.545	-0.0	-0.0	-0.0	4.3294219970703125	12.24225616455078	-734.8530883789062	-0.0	-0.0	-0.0	-0.0	-0.0	-0.0	-0.0	-0.0	-0.0	-0.0	-0.0	-0.0
0.5455	-0.0	-0.0	-0.0	4.261002540588379	12.488797187805176	-736.1940307617188	-0.0	-0.0	-0.0	-0.0	-0.0	-0.0	-0.0	-0.0	-0.0	-0.0	-0.0	-0.0
0.546	-0.0	-0.0	-0.0	4.463629722595215	12.963176727294922	-740.2528076171875	-0.0	-0.0	-0.0	-0.0	-0.0	-0.0	-0.0	-0.0	-0.0	-0.0	-0.0	-0.0
0.5465	-0.0	-0.0	-0.0	4.828047275543213	13.26975917816162	-738.499267578125	-0.0	-0.0	-0.0	-0.0	-0.0	-0.0	-0.0	-0.0	-0.0	-0.0	-0.0	-0.0
0.547	-0.0	-0.0	-0.0	5.078044891357422	13.975777626037598	-740.74609375	-0.0	-0.0	-0.0	-0.0	-0.0	-0.0	-0.0	-0.0	-0.0	-0.0	-0.0	-0.0
0.5475	-0.0	-0.0	-0.0	4.767350673675537	14.578227043151855	-738.611572265625	-0.0	-0.0	-0.0	-0.0	-0.0	-0.0	-0.0	-0.0	-0.0	-0.0	-0.0	-0.0
0.548	-0.0	-0.0	-0.0	4.449639797210693	15.391308784484863	-737.1553955078125	-0.0	-0.0	-0.0	-0.0	-0.0	-0.0	-0.0	-0.0	-0.0	-0.0	-0.0	-0.0
0.5485	-0.0	-0.0	-0.0	3.634202003479004	16.511032104492188	-738.8958129882812	-0.0	-0.0	-0.0	-0.0	-0.0	-0.0	-0.0	-0.0	-0.0	-0.0	-0.0	-0.0
0.549	-0.0	-0.0	-0.0	2.5650222301483154	17.48654556274414	-738.1023559570312	-0.0	-0.0	-0.0	-0.0	-0.0	-0.0	-0.0	-0.0	-0.0	-0.0	-0.0	-0.0
0.5495	-0.0	-0.0	-0.0	1.4273681640625	18.355552673339844	-738.411376953125	-0.0	-0.0	-0.0	-0.0	-0.0	-0.0	-0.0	-0.0	-0.0	-0.0	-0.0	-0.0
0.55	-0.0	-0.0	-0.0	1.232269048690796	18.96245384216309	-738.587646484375	-0.0	-0.0	-0.0	-0.0	-0.0	-0.0	-0.0	-0.0	-0.0	-0.0	-0.0	-0.0
0.5505	-0.0	-0.0	-0.0	0.2286505401134491	19.86484146118164	-739.3392333984375	-0.0	-0.0	-0.0	-0.0	-0.0	-0.0	-0.0	-0.0	-0.0	-0.0	-0.0	-0.0
0.551	-0.0	-0.0	-0.0	-0.8141860365867615	20.28280639648437	-738.588623046875	-0.0	-0.0	-0.0	-0.0	-0.0	-0.0	-0.0	-0.0	-0.0	-0.0	-0.0	-0.0
0.5515	-0.0	-0.0	-0.0	-2.1069447994232178	20.36716651916504	-741.2797241210938	-0.0	-0.0	-0.0	-0.0	-0.0	-0.0	-0.0	-0.0	-0.0	-0.0	-0.0	-0.0
0.552	-0.0	-0.0	-0.0	-3.145261526107788	20.426836013793945	-740.3558349609375	-0.0	-0.0	-0.0	-0.0	-0.0	-0.0	-0.0	-0.0	-0.0	-0.0	-0.0	-0.0
0.5525	-0.0	-0.0	-0.0	-3.312286376953125	20.4453239440918	-738.8524169921875	-0.0	-0.0	-0.0	-0.0	-0.0	-0.0	-0.0	-0.0	-0.0	-0.0	-0.0	-0.0
0.553	-0.0	-0.0	-0.0	-3.886444807052612	20.99599266052246	-739.3592529296875	-0.0	-0.0	-0.0	-0.0	-0.0	-0.0	-0.0	-0.0	-0.0	-0.0	-0.0	-0.0
0.5535	-0.0	-0.0	-0.0	-3.3162617683410645	21.27506446838379	-737.685546875	-0.0	-0.0	-0.0	-0.0	-0.0	-0.0	-0.0	-0.0	-0.0	-0.0	-0.0	-0.0
0.554	-0.0	-0.0	-0.0	-2.8159830570220947	21.216672897338867	-737.1791381835938	-0.0	-0.0	-0.0	-0.0	-0.0	-0.0	-0.0	-0.0	-0.0	-0.0	-0.0	-0.0
0.5545	-0.0	-0.0	-0.0	-2.509675979614258	21.41820526123047	-734.0612182617188	-0.0	-0.0	-0.0	-0.0	-0.0	-0.0	-0.0	-0.0	-0.0	-0.0	-0.0	-0.0
0.555	-0.0	-0.0	-0.0	-1.4005520343780518	21.519067764282227	-732.4359741210938	-0.0	-0.0	-0.0	-0.0	-0.0	-0.0	-0.0	-0.0	-0.0	-0.0	-0.0	-0.0
0.5555	-0.0	-0.0	-0.0	-0.8801796436309814	22.43416786193848	-729.1163330078125	-0.0	-0.0	-0.0	-0.0	-0.0	-0.0	-0.0	-0.0	-0.0	-0.0	-0.0	-0.0
0.556	-0.0	-0.0	-0.0	-0.1904089748859405	23.14730453491211	-726.4332275390625	-0.0	-0.0	-0.0	-0.0	-0.0	-0.0	-0.0	-0.0	-0.0	-0.0	-0.0	-0.0
0.5565	-0.0	-0.0	-0.0	0.127782940864563	23.15216827392578	-722.806640625	-0.0	-0.0	-0.0	-0.0	-0.0	-0.0	-0.0	-0.0	-0.0	-0.0	-0.0	-0.0
0.557	-0.0	-0.0	-0.0	-0.0385335944592952	23.491926193237305	-719.2268676757812	-0.0	-0.0	-0.0	-0.0	-0.0	-0.0	-0.0	-0.0	-0.0	-0.0	-0.0	-0.0
0.5575	-0.0	-0.0	-0.0	-0.0628967955708503	23.886947631835938	-718.1190185546875	-0.0	-0.0	-0.0	-0.0	-0.0	-0.0	-0.0	-0.0	-0.0	-0.0	-0.0	-0.0
0.558	-0.0	-0.0	-0.0	-0.7382282018661499	24.447904586791992	-716.2489013671875	-0.0	-0.0	-0.0	-0.0	-0.0	-0.0	-0.0	-0.0	-0.0	-0.0	-0.0	-0.0
